# xmcd
#
# Track frame offsets: 
#        150
#        23841
#        41501
#        55782
#        72279
#        93447
#        107208
#        124536
#        138573
#        155959
#        170634
#        190103
#        208426
#        218372
#        233739
#
# Disc length: 3333 seconds
#
# Revision: 0
# Processed by: cddbd v1.5.2PL0 Copyright (c) Steve Scherf et al.
# Submitted via: ExactAudioCopyFreeDBPlugin 1.0
#
DISCID=d80d030f
DTITLE=The Dodge Brothers - Drive Train
DYEAR=2018
DGENRE=Retro
TTITLE0=Oh California
TTITLE1=Head Out West
TTITLE2=Don't Wait for Me
TTITLE3=Middle of Nowhere
TTITLE4=Shining Gold
TTITLE5=Step Away from the Car
TTITLE6=Oh Death
TTITLE7=Waiting for Angels
TTITLE8=Sugar
TTITLE9=Saving the World
TTITLE10=Drive
TTITLE11=Cast Iron Heart
TTITLE12=Drunk On You (Lindy Lou)
TTITLE13=Blaze
TTITLE14=When I'm Gone
EXTD=
EXTT0=
EXTT1=
EXTT2=
EXTT3=
EXTT4=
EXTT5=
EXTT6=
EXTT7=
EXTT8=
EXTT9=
EXTT10=
EXTT11=
EXTT12=
EXTT13=
EXTT14=
PLAYORDER=
